<svg fill="none" height="32" viewBox="0 0 32 32" width="32" xmlns="http://www.w3.org/2000/svg"><path d="m32 5c0-2.76142-2.2386-5-5-5h-22c-2.76142 0-5 2.23858-5 5v22c0 2.7614 2.23858 5 5 5h22c2.7614 0 5-2.2386 5-5z" fill="#4a154b"/><path d="m11.3758 18.1146c0 .93-.7516 1.6816-1.68158 1.6816-.92993 0-1.68152-.7516-1.68152-1.6816 0-.9299.75159-1.6815 1.68152-1.6815h1.68158z" fill="#e01e5a"/><path d="m12.2168 18.1147c0-.9299.7516-1.6815 1.6815-1.6815.93 0 1.6816.7516 1.6816 1.6815v4.2038c0 .93-.7516 1.6815-1.6816 1.6815-.9299 0-1.6815-.7515-1.6815-1.6815z" fill="#e01e5a"/><path d="m13.8983 11.3631c-.9299 0-1.6815-.7516-1.6815-1.68157 0-.92994.7516-1.68153 1.6815-1.68153.93 0 1.6816.75159 1.6816 1.68153v1.68157z" fill="#36c5f0"/><path d="m13.8981 12.2166c.9299 0 1.6815.7515 1.6815 1.6815 0 .9299-.7516 1.6815-1.6815 1.6815h-4.21657c-.92994 0-1.68153-.7516-1.68153-1.6815 0-.93.75159-1.6815 1.68153-1.6815z" fill="#36c5f0"/><path d="m20.6372 13.8981c0-.93.7516-1.6815 1.6815-1.6815.93 0 1.6816.7515 1.6816 1.6815 0 .9299-.7516 1.6815-1.6816 1.6815h-1.6815z" fill="#2eb67d"/><path d="m19.7962 13.8981c0 .9299-.7516 1.6815-1.6816 1.6815-.9299 0-1.6815-.7516-1.6815-1.6815v-4.21657c0-.92994.7516-1.68153 1.6815-1.68153.93 0 1.6816.75159 1.6816 1.68153z" fill="#2eb67d"/><g fill="#ecb22e"><path d="m18.1146 20.637c.93 0 1.6816.7516 1.6816 1.6815s-.7516 1.6815-1.6816 1.6815c-.9299 0-1.6815-.7516-1.6815-1.6815v-1.6815z"/><path d="m18.1146 19.7962c-.9299 0-1.6815-.7516-1.6815-1.6816 0-.9299.7516-1.6815 1.6815-1.6815h4.2166c.9299 0 1.6815.7516 1.6815 1.6815 0 .93-.7516 1.6816-1.6815 1.6816z"/></g></svg>